<?xml version="1.0" encoding="utf-8"?>
<!-- Generator: Adobe Illustrator 22.0.1, SVG Export Plug-In . SVG Version: 6.00 Build 0)  -->
<svg version="1.1" id="Layer_1" xmlns="http://www.w3.org/2000/svg" xmlns:xlink="http://www.w3.org/1999/xlink" x="0px" y="0px"
	 viewBox="0 0 252.9 85.7" style="enable-background:new 0 0 252.9 85.7;" xml:space="preserve">
<style type="text/css">
	.st0{fill:#94754A;}
	.st1{fill:#D9D9D9;}
	.st2{fill:#454B54;}
	.st3{fill:#DCDBDE;}
	.st4{fill:#C29961;}
	.st5{fill:#FF7D5A;}
</style>
<g>
	<path class="st0" d="M235.8,17.1v-6.5c0-1-0.6-1.9-1.6-2.2l-21-7C211.6,0.9,210,2,210,3.6v13.5H235.8z"/>
	<path class="st0" d="M77.2,77.2h-60c-2.4,0-4.3-1.9-4.3-4.3v-8.6h64.3V77.2z"/>
	<path class="st1" d="M116,68.6H8.6c-2.4,0-4.3-1.9-4.3-4.3v-8.6h141.5l-22.1,11C121.3,68,118.6,68.6,116,68.6z"/>
	<circle class="st2" cx="68.6" cy="72.9" r="12.9"/>
	<circle class="st3" cx="68.6" cy="72.9" r="6.4"/>
	<circle class="st2" cx="42.9" cy="72.9" r="12.9"/>
	<circle class="st3" cx="42.9" cy="72.9" r="6.4"/>
	<rect x="158.6" y="60" class="st1" width="94.3" height="17.1"/>
	<circle class="st2" cx="184.3" cy="72.9" r="12.9"/>
	<circle class="st3" cx="184.3" cy="72.9" r="6.4"/>
	<circle class="st2" cx="158.6" cy="72.9" r="12.9"/>
	<circle class="st3" cx="158.6" cy="72.9" r="6.4"/>
	<path class="st4" d="M252.9,68.6h-21.4V60H210V12.9h34.8c2.2,0,4,1.6,4.3,3.8l3,23.9c0.6,4.4,0.8,8.8,0.8,13.3L252.9,68.6
		L252.9,68.6z"/>
	<rect x="231.5" y="60" class="st0" width="21.4" height="8.6"/>
	<circle class="st2" cx="231.5" cy="72.9" r="12.9"/>
	<circle class="st3" cx="231.5" cy="72.9" r="6.4"/>
	<g>
		<path class="st5" d="M231.5,21.4h-10.7c-1.2,0-2.1,1-2.1,2.1V36c0,1.5,1,2.8,2.5,3.1l10.3,2.3V21.4z"/>
		<path class="st0" d="M252.1,40.5l-2.4-19.1h-28.9c-1.2,0-2.1,1-2.1,2.1V36c0,1.5,1,2.8,2.5,3.1l31.5,7
			C252.5,44.3,252.3,42.4,252.1,40.5z"/>
	</g>
	<path class="st2" d="M231.5,41.4l21.1,4.7c-0.1-1.9-0.3-3.7-0.5-5.6l-2.4-19.1h-18.2V41.4z"/>
	<path class="st4" d="M4.3,0h197.2c2.4,0,4.3,1.9,4.3,4.3v51.4c0,2.4-1.9,4.3-4.3,4.3H4.3C1.9,60,0,58.1,0,55.7V4.3
		C0,1.9,1.9,0,4.3,0z"/>
	<path class="st0" d="M192.9,51.4h-180c-2.4,0-4.3-1.9-4.3-4.3l0,0c0-2.4,1.9-4.3,4.3-4.3h180c2.4,0,4.3,1.9,4.3,4.3l0,0
		C197.2,49.5,195.3,51.4,192.9,51.4z"/>
</g>
</svg>
